<?xml version="1.0" encoding="UTF-8"?>
<svg id="Layer_1" data-name="Layer 1" xmlns="http://www.w3.org/2000/svg" viewBox="0 0 24 24">
  <path d="M7.86,2.07c-1.06.05-1.79.22-2.43.47-.66.26-1.21.6-1.77,1.16-.55.56-.9,1.11-1.15,1.77-.25.64-.41,1.36-.46,2.43-.05,1.06-.06,1.41-.05,4.12s.02,3.06.07,4.12c.05,1.06.22,1.79.47,2.43.26.66.6,1.21,1.16,1.77.56.55,1.11.9,1.77,1.15.64.25,1.36.41,2.43.46,1.06.05,1.41.06,4.12.05,2.71,0,3.06-.02,4.12-.07s1.79-.22,2.42-.47c.66-.26,1.21-.6,1.77-1.16s.9-1.11,1.15-1.77c.25-.64.41-1.36.46-2.43.05-1.07.06-1.41.05-4.12s-.02-3.06-.07-4.12-.22-1.79-.47-2.43c-.26-.66-.6-1.21-1.16-1.77s-1.11-.9-1.77-1.15c-.64-.25-1.36-.41-2.43-.46s-1.41-.06-4.12-.05-3.06.02-4.12.07M7.98,20.15c-.98-.04-1.5-.2-1.86-.34-.47-.18-.8-.4-1.15-.75s-.57-.68-.75-1.15c-.14-.35-.3-.88-.35-1.86-.05-1.05-.06-1.37-.07-4.04s0-2.99.05-4.04c.04-.97.2-1.5.34-1.86.18-.47.4-.8.75-1.15s.68-.57,1.15-.75c.35-.14.88-.3,1.86-.35,1.05-.05,1.37-.06,4.04-.07,2.67,0,2.99,0,4.04.05.97.04,1.5.2,1.86.34.47.18.8.4,1.15.75s.57.68.75,1.15c.14.35.3.88.35,1.86.05,1.05.06,1.37.07,4.04,0,2.67,0,2.99-.05,4.04-.04.98-.2,1.5-.34,1.86-.18.47-.4.8-.75,1.15s-.68.57-1.15.75c-.35.14-.88.3-1.86.35-1.05.05-1.37.06-4.04.07s-2.99,0-4.04-.05M16.13,6.66c0,.66.54,1.2,1.2,1.2s1.2-.54,1.2-1.2c0-.66-.54-1.2-1.2-1.2,0,0,0,0,0,0-.66,0-1.2.54-1.2,1.2M6.87,12.01c0,2.84,2.31,5.13,5.14,5.12s5.13-2.31,5.13-5.14-2.31-5.13-5.15-5.12-5.13,2.31-5.12,5.14M8.67,12.01c0-1.84,1.49-3.34,3.33-3.34,1.84,0,3.34,1.49,3.34,3.33,0,1.84-1.49,3.34-3.33,3.34-1.84,0-3.34-1.49-3.34-3.33h0"/>
</svg>