<?xml version="1.0" encoding="UTF-8"?>
<svg id="Layer_1" data-name="Layer 1" xmlns="http://www.w3.org/2000/svg" viewBox="0 0 24 24">
  <path d="M20.53,2H3.47c-.8,0-1.47.67-1.47,1.47v17.13c0,.73.67,1.4,1.47,1.4h17.07c.8,0,1.47-.67,1.47-1.47V3.47c0-.8-.67-1.47-1.47-1.47ZM7.93,19.07h-3v-9.6h3v9.6ZM6.47,8.2c-.93,0-1.73-.8-1.73-1.73s.8-1.73,1.73-1.73,1.73.8,1.73,1.73c0,.93-.8,1.73-1.73,1.73ZM19.07,19.07h-2.93v-4.67c0-1.13,0-2.53-1.53-2.53s-1.8,1.2-1.8,2.47v4.73h-2.93v-9.6h2.8v1.33h0c.4-.73,1.33-1.53,2.8-1.53,3,0,3.53,2,3.53,4.53v5.27h.07Z"/>
</svg>