<?xml version="1.0" encoding="UTF-8"?>
<svg id="Layer_1" data-name="Layer 1" xmlns="http://www.w3.org/2000/svg" viewBox="0 0 24 24">
  <path d="M18.51,6.28c-.13-.07-.27-.15-.39-.23-.37-.24-.71-.53-1.01-.86-.75-.86-1.04-1.74-1.14-2.35h0c-.09-.51-.05-.84-.05-.84h-3.43v13.28c0,.18,0,.35,0,.53,0,.02,0,.04,0,.06,0,0,0,.02,0,.03h0c-.07.98-.62,1.84-1.47,2.32-.43.25-.92.38-1.42.37-1.6,0-2.9-1.3-2.9-2.92s1.3-2.92,2.9-2.92c.3,0,.6.05.89.14v-3.5c-1.76-.23-3.55.29-4.91,1.44-.59.51-1.09,1.13-1.47,1.81-.14.25-.69,1.25-.76,2.88-.04.93.24,1.88.37,2.28h0c.08.24.41,1.04.93,1.71.42.54.93,1.01,1.49,1.4h0s0,0,0,0c1.66,1.13,3.51,1.06,3.51,1.06.32-.01,1.39,0,2.6-.58,1.35-.64,2.11-1.59,2.11-1.59.49-.57.88-1.21,1.15-1.91.31-.82.41-1.8.41-2.19v-7.05s.6.39.6.39c0,0,.8.51,2.05.85.89.24,2.1.29,2.1.29v-3.41c-.42.05-1.28-.09-2.16-.53Z"/>
</svg>